{
  "accessors": [
    {
      "bufferView": 2,
      "componentType": 5126,
      "count": 7398,
      "max": [
        0.24968688189983368,
        1.9071608781814575,
        0.2630051374435425
      ],
      "min": [
        -0.2704068422317505,
        0.7620490193367004,
        -0.22709238529205322
      ],
      "type": "VEC3"
    },
    {
      "bufferView": 2,
      "byteOffset": 88776,
      "componentType": 5126,
      "count": 7398,
      "max": [
        0.9998360872268677,
        0.9987658858299255,
        0.9999783039093018
      ],
      "min": [
        -0.999770998954773,
        -0.9999749660491943,
        -0.9999542236328125
      ],
      "type": "VEC3"
    },
    {
      "bufferView": 3,
      "componentType": 5126,
      "count": 7398,
      "max": [
        0.9999675154685974,
        0.9997721314430237,
        0.9954447746276855,
        1.0
      ],
      "min": [
        -0.9999834895133972,
        -0.9999397993087769,
        -0.9999284744262695,
        -1.0
      ],
      "type": "VEC4"
    },
    {
      "bufferView": 1,
      "componentType": 5126,
      "count": 7398,
      "max": [
        0.9872999787330627,
        0.9994999766349792
      ],
      "min": [
        0.0005000000237487257,
        0.000500023365020752
      ],
      "type": "VEC2"
    },
    {
      "bufferView": 1,
      "byteOffset": 59184,
      "componentType": 5126,
      "count": 7398,
      "max": [
        0.9872999787330627,
        0.9994999766349792
      ],
      "min": [
        0.0005000000237487257,
        0.000500023365020752
      ],
      "type": "VEC2"
    },
    {
      "bufferView": 1,
      "byteOffset": 118368,
      "componentType": 5126,
      "count": 7398,
      "max": [
        0.9872999787330627,
        0.9994999766349792
      ],
      "min": [
        0.0005000000237487257,
        0.000500023365020752
      ],
      "type": "VEC2"
    },
    {
      "bufferView": 1,
      "byteOffset": 177552,
      "componentType": 5126,
      "count": 7398,
      "max": [
        0.9872999787330627,
        0.9994999766349792
      ],
      "min": [
        0.0005000000237487257,
        0.000500023365020752
      ],
      "type": "VEC2"
    },
    {
      "bufferView": 1,
      "byteOffset": 236736,
      "componentType": 5126,
      "count": 7398,
      "max": [
        0.9872999787330627,
        0.9994999766349792
      ],
      "min": [
        0.0005000000237487257,
        0.000500023365020752
      ],
      "type": "VEC2"
    },
    {
      "bufferView": 0,
      "componentType": 5125,
      "count": 28326,
      "type": "SCALAR"
    },
    {
      "bufferView": 2,
      "byteOffset": 177552,
      "componentType": 5126,
      "count": 4415,
      "max": [
        0.4040779173374176,
        1.5603538751602173,
        0.1277468204498291
      ],
      "min": [
        0.007138628978282213,
        -0.005134811624884605,
        -0.22038662433624268
      ],
      "type": "VEC3"
    },
    {
      "bufferView": 2,
      "byteOffset": 230532,
      "componentType": 5126,
      "count": 4415,
      "max": [
        0.9999678134918213,
        0.9998224973678589,
        0.9998712539672852
      ],
      "min": [
        -0.9999005794525146,
        -0.9998470544815063,
        -0.99998939037323
      ],
      "type": "VEC3"
    },
    {
      "bufferView": 3,
      "byteOffset": 118368,
      "componentType": 5126,
      "count": 4415,
      "max": [
        0.9988980293273926,
        0.9999553561210632,
        0.9999768733978271,
        1.0
      ],
      "min": [
        -0.9999523162841797,
        -0.9997324347496033,
        -0.9999861121177673,
        -1.0
      ],
      "type": "VEC4"
    },
    {
      "bufferView": 1,
      "byteOffset": 295920,
      "componentType": 5126,
      "count": 4415,
      "max": [
        0.9966999888420105,
        0.9994999766349792
      ],
      "min": [
        0.0005000000237487257,
        0.000500023365020752
      ],
      "type": "VEC2"
    },
    {
      "bufferView": 1,
      "byteOffset": 331240,
      "componentType": 5126,
      "count": 4415,
      "max": [
        0.9966999888420105,
        0.9994999766349792
      ],
      "min": [
        0.0005000000237487257,
        0.000500023365020752
      ],
      "type": "VEC2"
    },
    {
      "bufferView": 1,
      "byteOffset": 366560,
      "componentType": 5126,
      "count": 4415,
      "max": [
        0.9966999888420105,
        0.9994999766349792
      ],
      "min": [
        0.0005000000237487257,
        0.000500023365020752
      ],
      "type": "VEC2"
    },
    {
      "bufferView": 1,
      "byteOffset": 401880,
      "componentType": 5126,
      "count": 4415,
      "max": [
        0.9966999888420105,
        0.9994999766349792
      ],
      "min": [
        0.0005000000237487257,
        0.000500023365020752
      ],
      "type": "VEC2"
    },
    {
      "bufferView": 1,
      "byteOffset": 437200,
      "componentType": 5126,
      "count": 4415,
      "max": [
        0.9966999888420105,
        0.9994999766349792
      ],
      "min": [
        0.0005000000237487257,
        0.000500023365020752
      ],
      "type": "VEC2"
    },
    {
      "bufferView": 0,
      "byteOffset": 113304,
      "componentType": 5125,
      "count": 19740,
      "type": "SCALAR"
    },
    {
      "bufferView": 2,
      "byteOffset": 283512,
      "componentType": 5126,
      "count": 3949,
      "max": [
        0.2829901874065399,
        1.5822504758834839,
        0.13130271434783936
      ],
      "min": [
        -0.3747748136520386,
        -0.004226073622703552,
        -0.22791245579719543
      ],
      "type": "VEC3"
    },
    {
      "bufferView": 2,
      "byteOffset": 330900,
      "componentType": 5126,
      "count": 3949,
      "max": [
        0.9997966289520264,
        0.9982211589813232,
        0.9998441934585571
      ],
      "min": [
        -0.9998736381530762,
        -0.9988390207290649,
        -0.9998966455459595
      ],
      "type": "VEC3"
    },
    {
      "bufferView": 3,
      "byteOffset": 189008,
      "componentType": 5126,
      "count": 3949,
      "max": [
        0.9964356422424316,
        0.9999468326568604,
        0.9976861476898193,
        1.0
      ],
      "min": [
        -0.9999179244041443,
        -0.9999446868896484,
        -0.9994733333587646,
        -1.0
      ],
      "type": "VEC4"
    },
    {
      "bufferView": 1,
      "byteOffset": 472520,
      "componentType": 5126,
      "count": 3949,
      "max": [
        0.9994999766349792,
        0.9994999766349792
      ],
      "min": [
        0.0005000000237487257,
        0.003000020980834961
      ],
      "type": "VEC2"
    },
    {
      "bufferView": 1,
      "byteOffset": 504112,
      "componentType": 5126,
      "count": 3949,
      "max": [
        0.9994999766349792,
        0.9994999766349792
      ],
      "min": [
        0.0005000000237487257,
        0.003000020980834961
      ],
      "type": "VEC2"
    },
    {
      "bufferView": 1,
      "byteOffset": 535704,
      "componentType": 5126,
      "count": 3949,
      "max": [
        0.9994999766349792,
        0.9994999766349792
      ],
      "min": [
        0.0005000000237487257,
        0.003000020980834961
      ],
      "type": "VEC2"
    },
    {
      "bufferView": 1,
      "byteOffset": 567296,
      "componentType": 5126,
      "count": 3949,
      "max": [
        0.9994999766349792,
        0.9994999766349792
      ],
      "min": [
        0.0005000000237487257,
        0.003000020980834961
      ],
      "type": "VEC2"
    },
    {
      "bufferView": 1,
      "byteOffset": 598888,
      "componentType": 5126,
      "count": 3949,
      "max": [
        0.9994999766349792,
        0.9994999766349792
      ],
      "min": [
        0.0005000000237487257,
        0.003000020980834961
      ],
      "type": "VEC2"
    },
    {
      "bufferView": 0,
      "byteOffset": 192264,
      "componentType": 5125,
      "count": 18741,
      "type": "SCALAR"
    },
    {
      "bufferView": 2,
      "byteOffset": 378288,
      "componentType": 5126,
      "count": 27625,
      "max": [
        0.2506968677043915,
        1.3558269739151,
        0.13247239589691162
      ],
      "min": [
        -0.26210877299308777,
        0.6304724812507629,
        -0.2055501937866211
      ],
      "type": "VEC3"
    },
    {
      "bufferView": 2,
      "byteOffset": 709788,
      "componentType": 5126,
      "count": 27625,
      "max": [
        0.9999748468399048,
        0.9998935461044312,
        0.9999516010284424
      ],
      "min": [
        -0.9999957084655762,
        -0.9999679327011108,
        -0.9999375343322754
      ],
      "type": "VEC3"
    },
    {
      "bufferView": 3,
      "byteOffset": 252192,
      "componentType": 5126,
      "count": 27625,
      "max": [
        0.9999526143074036,
        0.9999558329582214,
        0.9999170303344727,
        1.0
      ],
      "min": [
        -0.9999980330467224,
        -0.999972403049469,
        -0.9999966621398926,
        -1.0
      ],
      "type": "VEC4"
    },
    {
      "bufferView": 1,
      "byteOffset": 630480,
      "componentType": 5126,
      "count": 27625,
      "max": [
        0.9998599886894226,
        0.9990429878234863
      ],
      "min": [
        0.00032900000223889947,
        0.000850975513458252
      ],
      "type": "VEC2"
    },
    {
      "bufferView": 1,
      "byteOffset": 851480,
      "componentType": 5126,
      "count": 27625,
      "max": [
        0.9998599886894226,
        0.9990429878234863
      ],
      "min": [
        0.00032900000223889947,
        0.000850975513458252
      ],
      "type": "VEC2"
    },
    {
      "bufferView": 1,
      "byteOffset": 1072480,
      "componentType": 5126,
      "count": 27625,
      "max": [
        0.9998599886894226,
        0.9990429878234863
      ],
      "min": [
        0.00032900000223889947,
        0.000850975513458252
      ],
      "type": "VEC2"
    },
    {
      "bufferView": 1,
      "byteOffset": 1293480,
      "componentType": 5126,
      "count": 27625,
      "max": [
        0.9998599886894226,
        0.9990429878234863
      ],
      "min": [
        0.00032900000223889947,
        0.000850975513458252
      ],
      "type": "VEC2"
    },
    {
      "bufferView": 1,
      "byteOffset": 1514480,
      "componentType": 5126,
      "count": 27625,
      "max": [
        0.9998599886894226,
        0.9990429878234863
      ],
      "min": [
        0.00032900000223889947,
        0.000850975513458252
      ],
      "type": "VEC2"
    },
    {
      "bufferView": 0,
      "byteOffset": 267228,
      "componentType": 5125,
      "count": 64074,
      "type": "SCALAR"
    }
  ],
  "asset": {
    "extras": {
      "author": "sguru049 (https://sketchfab.com/sguru049)",
      "license": "CC-BY-4.0 (http://creativecommons.org/licenses/by/4.0/)",
      "source": "https://sketchfab.com/3d-models/neil-armstrong-3ae2fe6f2d574594bb286c23a6af7280",
      "title": "Neil Armstrong"
    },
    "generator": "Sketchfab-12.67.0",
    "version": "2.0"
  },
  "bufferViews": [
    {
      "buffer": 0,
      "byteLength": 523524,
      "name": "floatBufferViews",
      "target": 34963
    },
    {
      "buffer": 0,
      "byteLength": 1735480,
      "byteOffset": 523524,
      "byteStride": 8,
      "name": "floatBufferViews",
      "target": 34962
    },
    {
      "buffer": 0,
      "byteLength": 1041288,
      "byteOffset": 2259004,
      "byteStride": 12,
      "name": "floatBufferViews",
      "target": 34962
    },
    {
      "buffer": 0,
      "byteLength": 694192,
      "byteOffset": 3300292,
      "byteStride": 16,
      "name": "floatBufferViews",
      "target": 34962
    }
  ],
  "buffers": [
    {
      "byteLength": 3994484,
      "uri": "scene.bin"
    }
  ],
  "images": [
    {
      "uri": "textures/StingrayPBS2_baseColor.jpeg"
    },
    {
      "uri": "textures/StingrayPBS2_metallicRoughness.png"
    },
    {
      "uri": "textures/StingrayPBS2_normal.jpeg"
    },
    {
      "uri": "textures/StingrayPBS3_baseColor.jpeg"
    },
    {
      "uri": "textures/StingrayPBS3_metallicRoughness.png"
    },
    {
      "uri": "textures/StingrayPBS3_normal.jpeg"
    },
    {
      "uri": "textures/StingrayPBS4_baseColor.jpeg"
    },
    {
      "uri": "textures/StingrayPBS4_metallicRoughness.png"
    },
    {
      "uri": "textures/StingrayPBS4_normal.jpeg"
    },
    {
      "uri": "textures/StingrayPBS1_baseColor.jpeg"
    },
    {
      "uri": "textures/StingrayPBS1_metallicRoughness.png"
    },
    {
      "uri": "textures/StingrayPBS1_normal.jpeg"
    }
  ],
  "materials": [
    {
      "name": "StingrayPBS2",
      "normalTexture": {
        "index": 2,
        "texCoord": 2
      },
      "occlusionTexture": {
        "index": 1
      },
      "pbrMetallicRoughness": {
        "baseColorTexture": {
          "index": 0
        },
        "metallicRoughnessTexture": {
          "index": 1,
          "texCoord": 1
        }
      }
    },
    {
      "name": "StingrayPBS3",
      "normalTexture": {
        "index": 5
      },
      "occlusionTexture": {
        "index": 4
      },
      "pbrMetallicRoughness": {
        "baseColorTexture": {
          "index": 3
        },
        "metallicRoughnessTexture": {
          "index": 4
        }
      }
    },
    {
      "name": "StingrayPBS4",
      "normalTexture": {
        "index": 8
      },
      "occlusionTexture": {
        "index": 7
      },
      "pbrMetallicRoughness": {
        "baseColorTexture": {
          "index": 6
        },
        "metallicRoughnessTexture": {
          "index": 7
        }
      }
    },
    {
      "name": "StingrayPBS1",
      "normalTexture": {
        "index": 11
      },
      "occlusionTexture": {
        "index": 10
      },
      "pbrMetallicRoughness": {
        "baseColorTexture": {
          "index": 9
        },
        "metallicRoughnessTexture": {
          "index": 10
        }
      }
    }
  ],
  "meshes": [
    {
      "name": "Object_0",
      "primitives": [
        {
          "attributes": {
            "NORMAL": 1,
            "POSITION": 0,
            "TANGENT": 2,
            "TEXCOORD_0": 3,
            "TEXCOORD_1": 4,
            "TEXCOORD_2": 5,
            "TEXCOORD_3": 6,
            "TEXCOORD_4": 7
          },
          "indices": 8,
          "material": 0,
          "mode": 4
        }
      ]
    },
    {
      "name": "Object_1",
      "primitives": [
        {
          "attributes": {
            "NORMAL": 10,
            "POSITION": 9,
            "TANGENT": 11,
            "TEXCOORD_0": 12,
            "TEXCOORD_1": 13,
            "TEXCOORD_2": 14,
            "TEXCOORD_3": 15,
            "TEXCOORD_4": 16
          },
          "indices": 17,
          "material": 1,
          "mode": 4
        }
      ]
    },
    {
      "name": "Object_2",
      "primitives": [
        {
          "attributes": {
            "NORMAL": 19,
            "POSITION": 18,
            "TANGENT": 20,
            "TEXCOORD_0": 21,
            "TEXCOORD_1": 22,
            "TEXCOORD_2": 23,
            "TEXCOORD_3": 24,
            "TEXCOORD_4": 25
          },
          "indices": 26,
          "material": 2,
          "mode": 4
        }
      ]
    },
    {
      "name": "Object_3",
      "primitives": [
        {
          "attributes": {
            "NORMAL": 28,
            "POSITION": 27,
            "TANGENT": 29,
            "TEXCOORD_0": 30,
            "TEXCOORD_1": 31,
            "TEXCOORD_2": 32,
            "TEXCOORD_3": 33,
            "TEXCOORD_4": 34
          },
          "indices": 35,
          "material": 3,
          "mode": 4
        }
      ]
    }
  ],
  "nodes": [
    {
      "children": [
        1
      ],
      "matrix": [
        1.0,
        0.0,
        0.0,
        0.0,
        0.0,
        2.220446049250313e-16,
        -1.0,
        0.0,
        0.0,
        1.0,
        2.220446049250313e-16,
        0.0,
        0.0,
        0.0,
        0.0,
        1.0
      ],
      "name": "Sketchfab_model"
    },
    {
      "children": [
        2
      ],
      "name": "root"
    },
    {
      "children": [
        3
      ],
      "matrix": [
        1.0,
        0.0,
        0.0,
        0.0,
        0.0,
        2.220446049250313e-16,
        1.0,
        0.0,
        0.0,
        -1.0,
        2.220446049250313e-16,
        0.0,
        0.0,
        0.0,
        0.0,
        1.0
      ],
      "name": "GLTF_SceneRootNode"
    },
    {
      "children": [
        4,
        5,
        6,
        7
      ],
      "name": "astronaut_0"
    },
    {
      "mesh": 0,
      "name": "Object_4"
    },
    {
      "mesh": 1,
      "name": "Object_5"
    },
    {
      "mesh": 2,
      "name": "Object_6"
    },
    {
      "mesh": 3,
      "name": "Object_7"
    }
  ],
  "samplers": [
    {
      "magFilter": 9729,
      "minFilter": 9987,
      "wrapS": 10497,
      "wrapT": 10497
    }
  ],
  "scene": 0,
  "scenes": [
    {
      "name": "Sketchfab_Scene",
      "nodes": [
        0
      ]
    }
  ],
  "textures": [
    {
      "sampler": 0,
      "source": 0
    },
    {
      "sampler": 0,
      "source": 1
    },
    {
      "sampler": 0,
      "source": 2
    },
    {
      "sampler": 0,
      "source": 3
    },
    {
      "sampler": 0,
      "source": 4
    },
    {
      "sampler": 0,
      "source": 5
    },
    {
      "sampler": 0,
      "source": 6
    },
    {
      "sampler": 0,
      "source": 7
    },
    {
      "sampler": 0,
      "source": 8
    },
    {
      "sampler": 0,
      "source": 9
    },
    {
      "sampler": 0,
      "source": 10
    },
    {
      "sampler": 0,
      "source": 11
    }
  ]
}
